REM DIRINDEX 1\2\6,1\2\7,1\2\8,1\2\9,1\3\10,1\3\11,1\4\12,1\4\13,1\4\14,1\5\15,1\5\16,1\5\17
REM DIRNAME folder01,folder02,folder03,folder04,folder05,folder06,folder07,folder08,folder09,folder10,folder11,folder12,folder13,folder14,folder15,folder16,folder17
TITLE ""
FILE "1900_3_023 sec04_0363_0379.mp3" MP3
  TRACK 01 AUDIO
    TITLE "0:"
    INDEX 01 00:00:00
  TRACK 02 AUDIO
    TITLE "17:cjc020_6695"
    INDEX 01 00:00:17
  TRACK 03 AUDIO
    TITLE "0:"
    INDEX 01 00:02:63
  TRACK 04 AUDIO
    TITLE "16:cjc020_6696"
    INDEX 01 00:02:67
  TRACK 05 AUDIO
    TITLE "0:"
    INDEX 01 00:04:15
  TRACK 06 AUDIO
    TITLE "17:cjc020_6697"
    INDEX 01 00:05:01
  TRACK 07 AUDIO
    TITLE "0:"
    INDEX 01 00:06:06
  TRACK 08 AUDIO
    TITLE "16:cjc020_6698"
    INDEX 01 00:06:12
  TRACK 09 AUDIO
    TITLE "0:"
    INDEX 01 00:07:52
  TRACK 10 AUDIO
    TITLE "17:cjc020_6699"
    INDEX 01 00:08:36
  TRACK 11 AUDIO
    TITLE "0:"
    INDEX 01 00:10:45
  TRACK 12 AUDIO
    TITLE "16:cjc020_6700"
    INDEX 01 00:10:47
  TRACK 13 AUDIO
    TITLE "0:"
    INDEX 01 00:11:66
  TRACK 14 AUDIO
    TITLE "17:cjc020_6701"
    INDEX 01 00:12:50
  TRACK 15 AUDIO
    TITLE "0:"
    INDEX 01 00:14:11
  TRACK 16 AUDIO
    TITLE "16:cjc020_6702"
    INDEX 01 00:14:13
  TRACK 17 AUDIO
    TITLE "0:"
    INDEX 01 00:15:48
  TRACK 18 AUDIO
    TITLE "17:cjc020_6703"
    INDEX 01 00:16:32
  TRACK 19 AUDIO
    TITLE "0:"
    INDEX 01 00:17:43
  TRACK 20 AUDIO
    TITLE "16:cjc020_6704"
    INDEX 01 00:17:51
  TRACK 21 AUDIO
    TITLE "0:"
    INDEX 01 00:18:60
  TRACK 22 AUDIO
    TITLE "17:cjc020_6705"
    INDEX 01 00:19:46
  TRACK 23 AUDIO
    TITLE "0:"
    INDEX 01 00:20:30
  TRACK 24 AUDIO
    TITLE "16:cjc020_6706"
    INDEX 01 00:20:32
  TRACK 25 AUDIO
    TITLE "0:"
    INDEX 01 00:21:72
  TRACK 26 AUDIO
    TITLE "17:cjc020_6707"
    INDEX 01 00:22:54
  TRACK 27 AUDIO
    TITLE "0:"
    INDEX 01 00:23:57
  TRACK 28 AUDIO
    TITLE "16:cjc020_6708"
    INDEX 01 00:23:63
  TRACK 29 AUDIO
    TITLE "0:"
    INDEX 01 00:24:72
  TRACK 30 AUDIO
    TITLE "17:cjc020_6709"
    INDEX 01 00:25:60
  TRACK 31 AUDIO
    TITLE "0:"
    INDEX 01 00:26:71
  TRACK 32 AUDIO
    TITLE "16:cjc020_6710"
    INDEX 01 00:27:00
  TRACK 33 AUDIO
    TITLE "0:"
    INDEX 01 00:28:06
  TRACK 34 AUDIO
    TITLE "17:cjc020_6711"
    INDEX 01 00:28:64
  TRACK 35 AUDIO
    TITLE "0:"
    INDEX 01 00:29:68
  TRACK 36 AUDIO
    TITLE "16:cjc020_6712"
    INDEX 01 00:30:01
  TRACK 37 AUDIO
    TITLE "0:"
    INDEX 01 00:31:04
  TRACK 38 AUDIO
    TITLE "17:cjc020_6713"
    INDEX 01 00:31:61
  TRACK 39 AUDIO
    TITLE "0:"
    INDEX 01 00:32:60
  TRACK 40 AUDIO
    TITLE "16:cjc020_6714"
    INDEX 01 00:32:66
  TRACK 41 AUDIO
    TITLE "0:"
    INDEX 01 00:34:00
  TRACK 42 AUDIO
    TITLE "17:cjc020_6715"
    INDEX 01 00:34:61
  TRACK 43 AUDIO
    TITLE "0:"
    INDEX 01 00:37:42
  TRACK 44 AUDIO
    TITLE "16:cjc020_6716"
    INDEX 01 00:37:46
  TRACK 45 AUDIO
    TITLE "0:"
    INDEX 01 00:39:00
  TRACK 46 AUDIO
    TITLE "17:cjc020_6717"
    INDEX 01 00:39:56
  TRACK 47 AUDIO
    TITLE "0:"
    INDEX 01 00:40:64
  TRACK 48 AUDIO
    TITLE "16:cjc020_6718"
    INDEX 01 00:40:70
  TRACK 49 AUDIO
    TITLE "0:"
    INDEX 01 00:42:06
  TRACK 50 AUDIO
    TITLE "17:cjc020_6719"
    INDEX 01 00:42:65
  TRACK 51 AUDIO
    TITLE "0:"
    INDEX 01 00:44:52
  TRACK 52 AUDIO
    TITLE "16:cjc020_6720"
    INDEX 01 00:44:58
  TRACK 53 AUDIO
    TITLE "0:"
    INDEX 01 00:46:06
  TRACK 54 AUDIO
    TITLE "17:cjc020_6721"
    INDEX 01 00:46:62
  TRACK 55 AUDIO
    TITLE "0:"
    INDEX 01 00:47:70
  TRACK 56 AUDIO
    TITLE "16:cjc020_6722"
    INDEX 01 00:47:74
  TRACK 57 AUDIO
    TITLE "0:"
    INDEX 01 00:49:16
  TRACK 58 AUDIO
    TITLE "17:cjc020_6723"
    INDEX 01 00:49:74
  TRACK 59 AUDIO
    TITLE "0:"
    INDEX 01 00:51:11
  TRACK 60 AUDIO
    TITLE "16:cjc020_6724"
    INDEX 01 00:51:15
  TRACK 61 AUDIO
    TITLE "0:"
    INDEX 01 00:52:22
  TRACK 62 AUDIO
    TITLE "17:cjc020_6725"
    INDEX 01 00:53:06
  TRACK 63 AUDIO
    TITLE "0:"
    INDEX 01 00:54:15
  TRACK 64 AUDIO
    TITLE "16:cjc020_6726"
    INDEX 01 00:54:25
  TRACK 65 AUDIO
    TITLE "0:"
    INDEX 01 00:55:53
  TRACK 66 AUDIO
    TITLE "17:cjc020_6727"
    INDEX 01 00:56:35
  TRACK 67 AUDIO
    TITLE "0:"
    INDEX 01 00:59:30
  TRACK 68 AUDIO
    TITLE "16:cjc020_6728"
    INDEX 01 00:59:36
  TRACK 69 AUDIO
    TITLE "0:"
    INDEX 01 01:00:55
